<?xml version="1.0" standalone="no"?>
<!DOCTYPE svg PUBLIC "-//W3C//DTD SVG 20010904//EN"
 "http://www.w3.org/TR/2001/REC-SVG-20010904/DTD/svg10.dtd">
<svg version="1.0" xmlns="http://www.w3.org/2000/svg"
 width="550.000000pt" height="550.000000pt" viewBox="0 0 550.000000 550.000000"
 preserveAspectRatio="xMidYMid meet">

<g transform="translate(0.000000,550.000000) scale(0.100000,-0.100000)"
fill="#000000" stroke="none">
<path d="M2370 5030 l-365 -220 -3 95 -3 95 -499 0 -500 0 0 -397 -1 -398
-374 -224 -375 -224 0 -1498 0 -1499 100 0 100 0 0 1434 0 1433 375 224 374
224 1 363 0 362 300 0 300 0 2 -180 3 -180 460 276 c253 152 468 279 477 281
10 3 510 -291 1255 -738 681 -408 1241 -744 1246 -746 4 -2 7 52 7 120 l0 124
-1244 747 c-684 410 -1250 746 -1258 746 -7 -1 -177 -100 -378 -220z m1635
-535 l1234 -740 1 -112 c0 -62 -3 -113 -6 -113 -3 0 -561 333 -1239 740 -678
407 -1239 740 -1245 740 -7 0 -218 -124 -470 -275 -252 -151 -461 -275 -464
-275 -3 0 -7 78 -8 173 l-3 172 -305 0 -305 0 -5 -363 -5 -364 -370 -222 -370
-222 -3 -1432 -2 -1432 -90 0 -90 0 0 1493 1 1492 374 224 375 224 0 393 0
394 490 0 490 0 0 -89 c0 -50 4 -92 8 -95 5 -3 172 94 373 214 200 121 372
219 382 217 9 -1 573 -335 1252 -742z"/>
<path d="M2545 2729 c-38 -11 -107 -39 -153 -61 -69 -35 -98 -58 -170 -133
-101 -107 -142 -171 -186 -292 l-31 -88 -3 -502 -3 -503 100 0 100 0 3 473 c4
419 6 478 22 527 110 340 478 493 790 327 114 -61 217 -189 262 -327 16 -50
18 -110 22 -627 l3 -573 -750 0 -751 0 0 -100 0 -100 750 0 750 0 0 -275 0
-275 100 0 100 0 0 275 0 275 875 0 875 0 0 100 0 100 -875 0 -874 0 -3 603
-3 602 -31 88 c-44 121 -85 185 -186 292 -72 75 -101 98 -170 133 -129 64
-209 82 -363 81 -97 0 -148 -5 -200 -20z m405 -9 c41 -12 112 -40 158 -63 69
-34 98 -57 165 -127 97 -102 138 -168 181 -287 l31 -88 3 -607 3 -608 874 0
875 0 0 -90 0 -90 -875 0 -875 0 0 -275 0 -275 -90 0 -90 0 0 275 0 275 -750
0 -750 0 0 90 0 90 751 0 750 0 -3 578 c-4 521 -6 582 -22 632 -113 346 -486
504 -800 337 -117 -62 -227 -199 -272 -337 -16 -49 -18 -108 -22 -522 l-3
-468 -90 0 -90 0 3 498 3 497 31 88 c43 119 84 185 181 287 67 70 96 93 165
128 128 64 201 80 353 81 102 1 147 -3 205 -19z"/>
</g>
</svg>
